<?xml version="1.0" encoding="utf-8"?>
<!-- Generator: Adobe Illustrator 24.0.1, SVG Export Plug-In . SVG Version: 6.00 Build 0)  -->
<svg version="1.1" id="Capa_1" xmlns="http://www.w3.org/2000/svg" xmlns:xlink="http://www.w3.org/1999/xlink" x="0px" y="0px"
	 viewBox="0 0 56.97 56.97" style="enable-background:new 0 0 56.97 56.97;" xml:space="preserve">
<style type="text/css">
	.st0{fill:#00D4BB;}
</style>
<path class="st0" d="M55.15,51.89l-13.56-14.1c3.49-4.14,5.4-9.36,5.4-14.79c0-12.68-10.32-23-23-23s-23,10.32-23,23s10.32,23,23,23
	c4.76,0,9.3-1.44,13.18-4.16l13.66,14.21c0.57,0.59,1.34,0.92,2.16,0.92c0.78,0,1.52-0.3,2.08-0.84
	C56.26,54.98,56.29,53.08,55.15,51.89z M23.98,6c9.37,0,17,7.63,17,17s-7.63,17-17,17s-17-7.63-17-17S14.61,6,23.98,6z"/>
</svg>
